<?xml version="1.0" standalone="yes"?>
<svg xmlns="http://www.w3.org/2000/svg" width="512" height="512">
<path style="fill:#e7e7e9; stroke:none;" d="M0 0L0 234L1 234C1.06017 143.15 72.7493 57.4213 152 21.6944C176.961 10.442 206.363 1.01822 234 1L212 0L165 0L0 0z"/>
<path style="fill:#ff9701; stroke:none;" d="M0 249L249 249L249 0C116.384 0 0 116.384 0 249z"/>
<path style="fill:#7d5923; stroke:none;" d="M249 0L249 249L0 249L0 250L250 250L250 74L250 23L249 0z"/>
<path style="fill:#010101; stroke:none;" d="M250 0L250 250L0 250L0 262L250 262L250 512L262 512L262 262L512 262L512 250L262 250L262 0L250 0z"/>
<path style="fill:#7d5923; stroke:none;" d="M262 0L262 250L512 250L512 249L263 249L263 73L263 23L262 0z"/>
<path style="fill:#ff9701; stroke:none;" d="M263 0L263 249L512 249C512 116.384 395.617 0 263 0z"/>
<path style="fill:#e7e7e9; stroke:none;" d="M278 0L278 1C368.85 1.05988 454.579 72.7495 490.306 152C501.558 176.961 510.982 206.363 511 234L512 234L512 0L278 0M124 82L124 127L79 127L79 140L124 140L124 185L137 185L137 140L182 140L182 127L137 127L137 82L124 82z"/>
<path style="fill:#e5cdab; stroke:none;" d="M78 127L78 140L79 140L78 127M327 127L328 128L327 127z"/>
<path style="fill:#e7e7e9; stroke:none;" d="M327 140L431 140L431 127L359 127L329.318 127.603L327 140z"/>
<path style="fill:#e5cdab; stroke:none;" d="M182 128L182 140L183 140L182 128M123 140L124 141L123 140M124 185L124 186L137 186L124 185z"/>
<path style="fill:#7d5923; stroke:none;" d="M0 262L0 263L249 263L249 512L250 512L250 262L0 262M262 262L262 512L263 512L263 263L512 263L489 262L438 262L262 262z"/>
<path style="fill:#ff9701; stroke:none;" d="M0 263C0 395.617 116.384 512 249 512L249 263L0 263z"/>
<path style="fill:#e5cdab; stroke:none;" d="M263 263L263 512C395.616 512 512 395.616 512 263L263 263z"/>
<path style="fill:#e7e7e9; stroke:none;" d="M0 278L0 512L234 512L234 511C146.743 510.942 59.503 442.648 24.3086 366C16.2514 348.453 9.26978 329.984 5.44907 311C3.40407 300.839 3.92916 287.36 0 278M511 278C510.94 368.85 439.25 454.579 360 490.306C335.039 501.558 305.637 510.982 278 511L278 512L512 512L512 347L512 300L511 278z"/>
<path style="fill:#e5cdab; stroke:none;" d="M121 378C113.447 367.277 98.4408 359.641 92.6358 348C90.8755 344.47 95.0955 339.181 99 340.207C102.791 341.203 106.338 346.338 109 349C112.531 352.53 115.915 356.122 120 359C115.516 352.634 107.115 342.137 100 338.752C96.1832 336.936 90.2068 342.016 90.2068 346C90.2068 349.503 94.778 352.773 97 355C104.682 362.698 112.101 371.731 121 378z"/>
<path style="fill:#e7e7e9; stroke:none;" d="M162 337L131 369L130 369C123.319 359.517 110.683 346.789 101 340.377C97.0253 337.744 90.1107 342.048 91.3457 347C93.2239 354.531 106.595 363.59 112 369C114.195 371.197 118.944 374.542 118.944 378C118.944 381.458 114.195 384.803 112 387L89 410L89 411C91.1679 413.16 93.8855 416.884 97 417.654C100.896 418.618 104.634 413.361 107 411C112.111 405.9 122.694 390.591 130 389.631C133.504 389.171 136.84 393.846 139 396L162 419L163 419C165.222 416.77 169.795 413.491 169.793 410C169.79 403.096 153.679 391.683 149 387C146.805 384.803 142.056 381.458 142.056 378C142.056 374.542 146.805 371.197 149 369C158.495 359.496 177.999 348.278 162 337z"/>
<path style="fill:#010101; stroke:none;" d="M327 351L327 364L431 364L431 351L327 351z"/>
<path style="fill:#e5cdab; stroke:none;" d="M131 388L132 389L131 388M132 389L133 390L132 389M133 390L134 391L133 390M134 391L135 392L134 391M135 392L136 393L135 392M136 393L137 394L136 393M137 394L138 395L137 394M138 395L139 396L138 395M139 396L140 397L139 396M140 397L141 398L140 397z"/>
<path style="fill:#7d5923; stroke:none;" d="M327 397L327 398L431 398L399 397L327 397z"/>
<path style="fill:#e5cdab; stroke:none;" d="M141 398L142 399L141 398z"/>
<path style="fill:#010101; stroke:none;" d="M327 398L327 410L431 410L431 398L327 398z"/>
<path style="fill:#e5cdab; stroke:none;" d="M142 399L143 400L142 399M143 400L144 401L143 400M144 401L145 402L144 401M145 402L146 403L145 402M146 403L147 404L146 403M147 404L148 405L147 404M148 405L149 406L148 405M149 406L150 407L149 406M150 407L151 408L150 407M151 408L152 409L151 408M152 409L153 410L152 409M153 410L154 411L153 410M171 410L172 411L171 410z"/>
<path style="fill:#7d5923; stroke:none;" d="M327 410L327 411L431 411L399 410L327 410z"/>
<path style="fill:#e5cdab; stroke:none;" d="M154 411L155 412L154 411M170 411L171 412L170 411M155 412L156 413L155 412M169 412L170 413L169 412M156 413L157 414L156 413M168 413L169 414L168 413M157 414L158 415L157 414M167 414L168 415L167 414M158 415L159 416L158 415M166 415L167 416L166 415M159 416L160 417L159 416M165 416L166 417L165 416M160 417L161 418L160 417M164 417L165 418L164 417M161 418L162 419L161 418M163 418L164 419L163 418M162 419L163 420L162 419z"/>
</svg>
